<svg width="250" height="247" viewBox="0 0 250 247" fill="none" xmlns="http://www.w3.org/2000/svg">
<path d="M122.26 246.133C189.782 246.133 244.519 242.938 244.519 238.995C244.519 235.053 189.782 231.858 122.26 231.858C54.7375 231.858 0 235.053 0 238.995C0 242.938 54.7375 246.133 122.26 246.133Z" fill="#F5F5F5"/>
<path d="M51.5242 68.5169C46.4419 73.6307 55.0806 81.5695 49.374 85.2141C54.0339 87.5535 70.3654 90.5235 74.5965 81.3236C71.513 78.9274 73.6569 73.038 70.8131 67.3818C66.5568 58.9954 46.4419 62.7094 51.5242 68.5169Z" fill="#263238"/>
<path d="M51.9839 68.3844C50.4012 68.1196 45.0477 70.7806 49.0329 77.9248C52.2424 83.7008 49.5689 84.1106 49.5689 84.1106C49.5689 84.1106 52.7217 84.1989 50.83 79.9048C48.8248 75.3206 47.8853 70.5662 51.9839 68.3844Z" fill="#263238"/>
<path d="M89.4707 113.747C89.2757 113.39 88.9484 113.124 88.5592 113.006C88.17 112.888 87.7501 112.928 87.3898 113.116L87.0178 113.312C86.898 113.375 86.671 113.526 86.4881 113.634C86.3053 113.741 86.0909 113.861 85.8891 113.961C85.4915 114.161 85.0806 114.334 84.6595 114.478C83.8801 114.761 83.0605 114.916 82.2318 114.939C81.4706 114.948 80.7135 114.826 79.9934 114.579C79.5358 114.41 79.0947 114.199 78.6755 113.949C78.1332 112.751 77.6161 111.54 77.1747 110.292C76.6388 108.835 76.1658 107.347 75.7497 105.84C75.3335 104.333 74.9678 102.807 74.6651 101.275C74.5075 100.512 74.3687 99.7422 74.2426 98.9793L74.0724 97.838C74.0156 97.4722 73.9652 97.0561 73.9337 96.766V96.6399C73.85 95.8037 73.4377 95.035 72.7873 94.5029C72.1369 93.9707 71.3017 93.7187 70.4656 93.8024C69.6294 93.886 68.8607 94.2983 68.3285 94.9487C67.7964 95.5991 67.5444 96.4343 67.628 97.2704C67.6722 97.8064 67.71 98.2163 67.7668 98.664C67.8235 99.1117 67.8866 99.5405 67.9496 99.9756C68.0883 100.846 68.246 101.703 68.4225 102.561C68.7731 104.265 69.2151 105.949 69.7467 107.605C69.9926 108.438 70.2953 109.257 70.5791 110.083C70.8628 110.909 71.2096 111.717 71.569 112.517C72.2572 114.135 73.0383 115.712 73.9084 117.24L73.9841 117.379C74.2104 117.789 74.5496 118.126 74.9615 118.35C76.1533 119 77.4411 119.455 78.7764 119.7C80.1476 119.942 81.5532 119.912 82.9129 119.611C84.832 119.166 86.5948 118.21 88.0141 116.843C88.2474 116.629 88.4681 116.408 88.6447 116.175C88.8212 115.941 89.0356 115.721 89.2752 115.393C89.4601 115.165 89.5766 114.889 89.6112 114.598C89.6458 114.307 89.5971 114.012 89.4707 113.747Z" fill="#FF8B7B"/>
<path d="M93.6645 107.845H93.4816C92.8781 107.832 92.2797 107.959 91.7329 108.214C91.1861 108.47 90.7056 108.849 90.3288 109.321L87.2832 113.142V115.752C89.7298 116.723 92.8322 114.106 92.8322 114.106L94.4023 113.709C94.9307 113.577 95.3915 113.254 95.6955 112.802C95.9995 112.35 96.1251 111.802 96.048 111.263L95.821 109.73C95.747 109.21 95.4886 108.733 95.0928 108.387C94.697 108.041 94.1902 107.849 93.6645 107.845Z" fill="#FF8B7B"/>
<path d="M73.8523 93.1088C75.889 95.2023 76.0151 101.451 76.0151 101.451L67.8682 108.009C67.8682 108.009 64.5199 98.7397 66.3738 95.4671C67.9439 92.6926 71.2543 90.4415 73.8523 93.1088Z" fill="#4D65F1"/>
<g opacity="0.2">
<path opacity="0.2" d="M73.8523 93.1088C75.889 95.2023 76.0151 101.451 76.0151 101.451L67.8682 108.009C67.8682 108.009 64.5199 98.7397 66.3738 95.4671C67.9439 92.6926 71.2543 90.4415 73.8523 93.1088Z" fill="white"/>
</g>
<path d="M60.3711 233.592L64.8733 234.083L65.4913 221.851L60.989 221.352L60.3711 233.592Z" fill="#FF8B7B"/>
<path d="M65.61 231.145H60.3195C60.2129 231.142 60.1091 231.18 60.0302 231.252C59.9513 231.323 59.9036 231.423 59.8971 231.53L59.5439 236.53C59.5439 236.792 59.646 237.043 59.8286 237.23C60.0112 237.417 60.2598 237.526 60.5213 237.533C62.7535 237.533 62.7787 237.533 65.5658 237.533H73.0758C75.3837 237.533 75.39 235.193 74.3937 234.979C69.9104 234.033 68.1637 232.721 66.581 231.473C66.3029 231.258 65.9611 231.143 65.61 231.145Z" fill="#263238"/>
<path opacity="0.2" d="M65.4906 221.857L65.169 228.162H60.6416L60.9884 221.359L65.4906 221.857Z" fill="black"/>
<path d="M67.9186 124.252C67.9186 124.252 71.8155 156.871 71.8155 171.374C68.7446 191.552 66.1404 226.964 66.1404 226.964L59.9105 226.801C59.9105 226.801 57.0792 188.235 59.7024 171.582C56.3415 156.663 52.1924 122.234 52.1924 122.234L67.9186 124.252Z" fill="#263238"/>
<path opacity="0.2" d="M55.9065 133.332C55.164 133.659 54.4436 134.034 53.75 134.455C54.6076 140.893 55.7363 148.995 56.9343 156.474C58.9773 150.32 57.8739 136.788 55.9065 133.332Z" fill="black"/>
<path d="M11.6152 222.235L15.3292 224.827L21.7357 214.385L18.0217 211.793L11.6152 222.235Z" fill="#FF8B7B"/>
<path d="M16.269 223.458L13.1162 219.215C13.0561 219.128 12.9644 219.068 12.8606 219.048C12.7569 219.028 12.6494 219.049 12.5613 219.108L8.3365 221.819C8.12574 221.974 7.98445 222.206 7.94315 222.464C7.90186 222.723 7.96388 222.987 8.11581 223.2C9.43368 224.997 9.4589 225.01 11.1173 227.242C12.1451 228.61 14.1944 231.366 15.6069 233.264C17.0193 235.162 18.8669 233.724 18.4381 232.791C16.5464 228.635 16.5464 226.485 16.5843 224.442C16.5907 224.088 16.4798 223.743 16.269 223.458Z" fill="#263238"/>
<path opacity="0.2" d="M21.7288 214.385L18.431 219.77L14.4521 217.601L18.0211 211.793L21.7288 214.385Z" fill="black"/>
<path d="M34.3977 226.611C31.1755 226.611 24.4663 226.611 24.3528 221.869C24.2645 218.149 28.8676 216.604 32.8402 216.415C33.2803 216.394 33.7203 216.46 34.135 216.609C34.5498 216.757 34.9311 216.987 35.2573 217.283C35.5834 217.579 35.848 217.937 36.0359 218.335C36.2238 218.734 36.3314 219.166 36.3524 219.606V219.858C40.8546 219.644 43.7678 218.66 44.8335 216.983C47.2359 213.199 42.6328 203.432 38.1873 193.992C32.9537 182.888 27.0264 170.308 26.9129 158.258C26.9087 157.818 26.9914 157.381 27.1561 156.972C27.3209 156.564 27.5645 156.192 27.8731 155.877C28.1817 155.563 28.5492 155.312 28.9546 155.14C29.36 154.967 29.7954 154.876 30.2359 154.872C31.1197 154.874 31.9673 155.224 32.5951 155.846C33.223 156.467 33.5806 157.312 33.5905 158.195C33.6914 168.776 39.2656 180.65 44.2218 191.13C49.8969 203.224 54.8468 213.672 50.4644 220.577C47.9232 224.638 42.658 226.611 34.3977 226.611Z" fill="#4D65F1"/>
<path d="M62.9308 123.609C62.9308 123.609 52.1734 160.888 46.9208 174.407C36.7436 192.101 19.8571 219.177 19.8571 219.177L14.4658 216.024C14.4658 216.024 27.0771 184.748 35.5581 170.182C37.8344 155.049 46.4416 121.465 46.4416 121.465L62.9308 123.609Z" fill="#263238"/>
<path d="M17.2393 226.504C17.4533 226.858 17.7829 227.128 18.1726 227.267C18.2866 227.295 18.4061 227.29 18.5175 227.253C18.6288 227.216 18.7278 227.149 18.8031 227.059C18.8556 227.011 18.8956 226.951 18.9197 226.884C18.9439 226.817 18.9515 226.745 18.9418 226.674C18.8662 225.918 16.9114 224.934 16.5205 224.745C16.4977 224.736 16.4723 224.735 16.4491 224.743C16.4259 224.751 16.4064 224.768 16.3944 224.789C16.3792 224.812 16.3711 224.84 16.3711 224.868C16.3711 224.896 16.3792 224.923 16.3944 224.947C16.6259 225.491 16.9089 226.013 17.2393 226.504ZM18.5824 226.504C18.6379 226.574 18.6748 226.656 18.6896 226.744C18.6927 226.768 18.6896 226.793 18.6809 226.816C18.6721 226.839 18.6578 226.86 18.6392 226.876C18.5883 226.934 18.523 226.977 18.4499 227.002C18.3767 227.026 18.2984 227.031 18.223 227.015C17.8068 226.933 17.2582 226.258 16.7286 225.193C17.4153 225.513 18.0423 225.948 18.5824 226.479V226.504Z" fill="#4D65F1"/>
<path d="M16.3635 224.972L16.4014 225.003C17.0319 225.35 18.6714 225.634 19.0308 225.111C19.0912 225.015 19.1205 224.903 19.1149 224.79C19.1092 224.677 19.0689 224.569 18.9993 224.48C18.3687 223.364 16.477 224.675 16.3951 224.732C16.3763 224.747 16.3613 224.766 16.3515 224.788C16.3416 224.81 16.3371 224.834 16.3383 224.858C16.3358 224.898 16.3445 224.937 16.3635 224.972ZM18.7597 224.606C18.778 224.628 18.7949 224.651 18.8101 224.675C18.8795 224.795 18.8921 224.884 18.8543 224.934C18.6462 225.237 17.4355 225.129 16.7293 224.852C17.2022 224.568 18.3057 223.994 18.7597 224.606Z" fill="#4D65F1"/>
<path d="M68.6627 232.186C69.076 232.223 69.4898 232.119 69.8356 231.889C69.9232 231.812 69.9879 231.713 70.0224 231.601C70.0569 231.49 70.0599 231.371 70.031 231.259C70.022 231.187 69.9969 231.119 69.9576 231.059C69.9182 230.999 69.8657 230.949 69.804 230.912C69.1735 230.527 67.1998 231.504 66.8152 231.706C66.7935 231.718 66.7766 231.737 66.7674 231.76C66.7582 231.783 66.7573 231.809 66.7647 231.832C66.7743 231.859 66.7903 231.882 66.8112 231.901C66.8321 231.92 66.8573 231.933 66.8845 231.94C67.4673 232.082 68.0632 232.164 68.6627 232.186ZM69.4446 231.095C69.5344 231.089 69.624 231.109 69.7031 231.151C69.7347 231.151 69.7662 231.196 69.7788 231.271C69.7953 231.347 69.7911 231.425 69.7667 231.498C69.7423 231.572 69.6985 231.637 69.6401 231.687C69.3311 231.971 68.4609 232.009 67.2881 231.801C67.9508 231.446 68.6696 231.207 69.4131 231.095H69.4446Z" fill="#4D65F1"/>
<path d="M66.8842 231.971H66.9283C67.5589 231.681 68.7885 230.527 68.5867 229.928C68.5447 229.829 68.4744 229.745 68.3847 229.685C68.295 229.626 68.1899 229.594 68.0823 229.594C66.8212 229.449 66.7329 231.732 66.7266 231.826C66.7267 231.851 66.7332 231.876 66.7453 231.898C66.7574 231.92 66.7748 231.939 66.7959 231.952C66.8227 231.967 66.8535 231.974 66.8842 231.971ZM68.0192 229.827H68.1075C68.2399 229.827 68.3219 229.884 68.3408 229.947C68.4606 230.294 67.6535 231.208 67.004 231.605C67.0608 231.057 67.2625 229.827 68.0318 229.827H68.0192Z" fill="#4D65F1"/>
<path d="M46.4414 121.497L67.9183 124.246C72.7611 107.939 74.3564 100.064 74.7852 96.2741C74.8986 95.3216 74.676 94.3593 74.1556 93.5535C73.6352 92.7476 72.8499 92.1487 71.935 91.8602C70.6739 91.4566 69.0471 90.9774 67.4328 90.5991C66.8842 90.454 66.323 90.3216 65.7744 90.1955C62.5592 89.5432 59.3014 89.1217 56.026 88.9344C55.5404 88.8902 55.0612 88.865 54.5757 88.8398C53.6235 88.7894 52.684 88.7767 51.8264 88.7767C51.1828 88.776 50.546 88.9093 49.9567 89.1682C49.3674 89.427 48.8385 89.8058 48.4037 90.2804C47.9689 90.755 47.6377 91.3149 47.4312 91.9245C47.2247 92.5342 47.1475 93.1801 47.2044 93.8212C47.3746 95.7129 47.5071 97.4722 47.6079 99.0864C47.8476 102.87 47.9232 105.896 47.8665 108.545C47.7376 112.893 47.261 117.224 46.4414 121.497Z" fill="#4D65F1"/>
<g opacity="0.3">
<path opacity="0.3" d="M46.4414 121.497L67.9183 124.246C72.7611 107.939 74.3564 100.064 74.7852 96.2741C74.8986 95.3216 74.676 94.3593 74.1556 93.5535C73.6352 92.7476 72.8499 92.1487 71.935 91.8602C70.6739 91.4566 69.0471 90.9774 67.4328 90.5991C66.8842 90.454 66.323 90.3216 65.7744 90.1955C62.5592 89.5432 59.3014 89.1217 56.026 88.9344C55.5404 88.8902 55.0612 88.865 54.5757 88.8398C53.6235 88.7894 52.684 88.7767 51.8264 88.7767C51.1828 88.776 50.546 88.9093 49.9567 89.1682C49.3674 89.427 48.8385 89.8058 48.4037 90.2804C47.9689 90.755 47.6377 91.3149 47.4312 91.9245C47.2247 92.5342 47.1475 93.1801 47.2044 93.8212C47.3746 95.7129 47.5071 97.4722 47.6079 99.0864C47.8476 102.87 47.9232 105.896 47.8665 108.545C47.7376 112.893 47.261 117.224 46.4414 121.497Z" fill="white"/>
</g>
<path opacity="0.3" d="M47.8542 108.52C50.6918 104.85 51.7196 100.65 50.799 98.3361L47.5957 99.0549C47.8542 102.826 47.9236 105.865 47.8542 108.52Z" fill="#4D65F1"/>
<path d="M67.4331 90.5613C66.8782 90.4163 66.3233 90.2839 65.7747 90.1577C62.5568 89.5084 59.2972 89.087 56.0199 88.8966C55.5344 88.8588 55.0552 88.8336 54.576 88.8083L53.7373 88.7705L54.3679 89.874C54.4561 90.0253 56.6001 93.5312 61.9346 97.302L63.0759 98.0965L64.1731 97.2579C65.2297 96.4999 66.0931 95.5039 66.6934 94.3504C67.2937 93.1969 67.614 91.9183 67.6286 90.618L67.4331 90.5613Z" fill="white"/>
<path d="M58.3905 82.4144C58.1887 85.0691 57.5644 87.7742 56.0195 88.9092C56.0195 88.9092 57.9869 92.1818 63.0818 95.7571C66.2725 93.3168 65.7743 90.1577 65.7743 90.1577C62.3819 88.8966 62.6215 86.5446 64.0529 82.7927L61.4045 81.3677C61.176 81.1159 60.8786 80.9368 60.5491 80.8528C60.2197 80.7687 59.8727 80.7834 59.5516 80.8949C59.2304 81.0065 58.9491 81.21 58.7426 81.4801C58.5362 81.7503 58.4137 82.0752 58.3905 82.4144Z" fill="#FF8B7B"/>
<path opacity="0.2" d="M61.4044 81.3677C61.1899 81.1306 60.9139 80.9575 60.6071 80.8675C60.3003 80.7775 59.9745 80.774 59.6659 80.8576C59.3573 80.9411 59.0777 81.1083 58.8582 81.3408C58.6386 81.5733 58.4876 81.8619 58.4219 82.1748C59.4279 84.2032 61.0503 85.8609 63.0565 86.9103C63.1284 85.4883 63.4641 84.092 64.0465 82.7928L61.4044 81.3677Z" fill="black"/>
<path d="M54.266 74.091C55.5839 79.2174 56.0316 81.4118 59.1655 83.5494C63.8758 86.7905 69.885 84.0539 70.1183 78.6436C70.339 73.7694 68.151 66.2027 62.6777 65.1181C61.4694 64.8711 60.218 64.9377 59.0428 65.3116C57.8676 65.6855 56.8078 66.3541 55.9643 67.2538C55.1209 68.1536 54.522 69.2543 54.2247 70.4512C53.9274 71.6481 53.9416 72.9012 54.266 74.091Z" fill="#FF8B7B"/>
<path d="M67.313 66.1775C64.2254 68.9221 60.5627 70.9409 56.5934 72.0859C56.5934 72.0859 60.5092 80.4156 53.1821 78.3158C51.0571 71.222 53.1821 67.5395 55.0738 65.8055C60.9001 63.9138 64.9988 63.2832 67.313 66.1775Z" fill="#263238"/>
<path d="M54.0206 79.1419C54.4502 80.0707 55.2301 80.7916 56.1897 81.1471C57.4508 81.6011 58.2012 80.5165 57.9301 79.2554C57.6841 78.1267 56.7257 76.5251 55.4078 76.607C55.1228 76.6314 54.8482 76.7259 54.6085 76.8821C54.3688 77.0383 54.1715 77.2513 54.0342 77.5023C53.8968 77.7533 53.8237 78.0343 53.8213 78.3204C53.819 78.6065 53.8874 78.8887 54.0206 79.1419Z" fill="#FF8B7B"/>
<path d="M46.2838 120.198L45.0669 121.995C44.9723 122.134 45.1299 122.31 45.3758 122.342L67.8995 125.23C68.095 125.23 68.2652 125.179 68.2968 125.059L68.7381 123.168C68.7381 123.035 68.612 122.903 68.4039 122.871L46.6496 120.084C46.584 120.069 46.5156 120.071 46.4513 120.091C46.387 120.111 46.3292 120.148 46.2838 120.198Z" fill="#4D65F1"/>
<path d="M48.8873 123.004L48.3072 122.928C48.1937 122.928 48.1117 122.84 48.1307 122.77L48.7234 120.305C48.7459 120.263 48.7819 120.231 48.8255 120.212C48.869 120.194 48.9175 120.191 48.963 120.204L49.5494 120.28C49.6629 120.28 49.7449 120.362 49.726 120.437L49.1332 122.897C49.1143 122.972 49.0071 123.016 48.8873 123.004Z" fill="#263238"/>
<path d="M66.235 125.223L65.6549 125.154C65.5414 125.154 65.4594 125.066 65.4783 124.99L66.071 122.531C66.071 122.461 66.1972 122.411 66.3107 122.424L66.8971 122.499C67.0106 122.499 67.0925 122.588 67.0736 122.657L66.4809 125.122C66.462 125.192 66.3548 125.242 66.235 125.223Z" fill="#263238"/>
<path d="M57.5645 124.113L56.9844 124.038C56.8646 124.038 56.7826 123.956 56.8015 123.88L57.3943 121.421C57.3943 121.345 57.5204 121.301 57.6402 121.314L58.2203 121.389C58.3338 121.389 58.4158 121.478 58.4032 121.547L57.8041 124.013C57.7915 124.082 57.678 124.126 57.5645 124.113Z" fill="#263238"/>
<path d="M63.05 73.8703C63.1257 74.2927 63.4157 74.5954 63.6806 74.5387C63.9454 74.4819 64.1157 74.1036 64.0337 73.6811C63.9517 73.2586 63.6617 72.956 63.4031 73.0127C63.1446 73.0695 62.987 73.4478 63.05 73.8703Z" fill="#263238"/>
<path d="M67.8179 72.956C67.8999 73.3785 68.1899 73.6748 68.4484 73.6244C68.707 73.5739 68.8835 73.183 68.8016 72.7605C68.7196 72.3381 68.4295 72.0417 68.171 72.0921C67.9125 72.1426 67.7422 72.5335 67.8179 72.956Z" fill="#263238"/>
<path d="M68.0322 72.1426L68.9907 71.6508C68.9907 71.6508 68.6628 72.5462 68.0322 72.1426Z" fill="#263238"/>
<path d="M66.5566 73.9019C67.1201 74.7901 67.801 75.5982 68.5807 76.3043C68.396 76.5006 68.1703 76.6538 67.9196 76.753C67.6689 76.8521 67.3995 76.8949 67.1305 76.8781L66.5566 73.9019Z" fill="#FF5652"/>
<path d="M63.5805 78.5805C63.5614 78.6025 63.5506 78.6305 63.5498 78.6596C63.5491 78.6887 63.5584 78.7171 63.5762 78.7401C63.594 78.7631 63.6192 78.7793 63.6476 78.7858C63.676 78.7924 63.7057 78.7889 63.7318 78.776C64.2083 78.533 64.7355 78.4063 65.2704 78.4063C65.8052 78.4063 66.3325 78.533 66.8089 78.776C66.8375 78.7922 66.8712 78.7967 66.903 78.7885C66.9348 78.7802 66.9622 78.7599 66.9792 78.7318C66.9964 78.7031 67.0021 78.6689 66.995 78.6361C66.988 78.6034 66.9688 78.5745 66.9414 78.5553C66.4271 78.2919 65.8576 78.1545 65.2798 78.1545C64.702 78.1545 64.1325 78.2919 63.6183 78.5553C63.6183 78.5553 63.6183 78.5679 63.5805 78.5805Z" fill="#263238"/>
<path d="M61.4044 72.5714C61.4433 72.5474 61.474 72.5123 61.4926 72.4705C61.624 72.1831 61.8217 71.931 62.0694 71.7348C62.3172 71.5386 62.6079 71.4039 62.9177 71.3418C62.9509 71.3379 62.9831 71.3275 63.0122 71.311C63.0413 71.2946 63.0669 71.2726 63.0875 71.2462C63.108 71.2198 63.1231 71.1895 63.1318 71.1572C63.1406 71.1249 63.1428 71.0912 63.1384 71.0581C63.1353 71.0251 63.1256 70.9931 63.1098 70.964C63.094 70.9349 63.0726 70.9093 63.0467 70.8887C63.0207 70.8681 62.9909 70.8529 62.959 70.8441C62.9271 70.8353 62.8938 70.833 62.861 70.8374C62.4668 70.911 62.0959 71.0776 61.779 71.3232C61.462 71.5688 61.2082 71.8865 61.0386 72.2498C61.0141 72.2996 61.0067 72.356 61.0175 72.4104C61.0283 72.4648 61.0567 72.5141 61.0984 72.5507C61.14 72.5873 61.1925 72.6091 61.2478 72.6129C61.3032 72.6166 61.3582 72.6021 61.4044 72.5714Z" fill="#263238"/>
<path d="M69.236 69.3744L69.2675 69.3429C69.2867 69.3156 69.3004 69.2848 69.3076 69.2522C69.3148 69.2197 69.3156 69.186 69.3097 69.1531C69.3038 69.1203 69.2915 69.089 69.2734 69.0609C69.2554 69.0329 69.2319 69.0087 69.2045 68.9898C68.8785 68.7555 68.5014 68.6023 68.1044 68.5431C67.7074 68.4839 67.302 68.5203 66.9218 68.6492C66.8611 68.6757 66.8128 68.7245 66.787 68.7855C66.7612 68.8465 66.7598 68.9151 66.7831 68.9771C66.8083 69.0389 66.8569 69.0882 66.9184 69.1142C66.9799 69.1402 67.0491 69.1408 67.111 69.1159C67.4129 69.0169 67.7342 68.9916 68.0479 69.0421C68.3616 69.0925 68.6587 69.2173 68.9144 69.4059C68.9628 69.4404 69.022 69.4562 69.0811 69.4504C69.1402 69.4446 69.1952 69.4176 69.236 69.3744Z" fill="#263238"/>
<path d="M63.2832 73.0569L64.2416 72.5714C64.2416 72.5714 63.8696 73.4605 63.2832 73.0569Z" fill="#263238"/>
<path d="M30.2666 161.581C29.3824 161.581 28.5339 161.232 27.9057 160.61C27.2775 159.988 26.9204 159.143 26.9121 158.258C26.8238 149.304 29.8063 141.744 35.5381 136.397C42.5941 129.814 53.5974 126.756 66.5366 127.777C75.6103 128.496 81.4304 126.289 88.1648 123.723C89.2746 123.306 90.3907 122.878 91.5383 122.461C92.3745 122.157 93.2973 122.197 94.1038 122.573C94.9103 122.949 95.5344 123.63 95.8388 124.467C96.1431 125.303 96.1029 126.226 95.7268 127.032C95.3508 127.839 94.6697 128.463 93.8336 128.767C92.7175 129.171 91.6329 129.587 90.5546 129.997C83.6878 132.607 76.594 135.3 66.0069 134.467C54.972 133.591 45.7785 136.018 40.116 141.303C35.7021 145.389 33.5519 151.07 33.6212 158.195C33.6254 158.636 33.5427 159.073 33.378 159.481C33.2132 159.89 32.9696 160.262 32.661 160.577C32.3525 160.891 31.985 161.142 31.5795 161.314C31.1741 161.486 30.7387 161.577 30.2982 161.581H30.2666Z" fill="#4D65F1"/>
<path d="M107.849 133.503L94.3551 138.447C93.2292 138.859 91.9856 138.807 90.8978 138.303C89.81 137.799 88.9672 136.883 88.5547 135.757L82.9824 120.546C82.5699 119.42 82.6216 118.177 83.1261 117.089C83.6306 116.001 84.5465 115.158 85.6724 114.746L99.1659 109.802L107.842 133.486L107.849 133.503Z" fill="#4D65F1"/>
<path opacity="0.7" d="M107.849 133.503L94.3551 138.447C93.2292 138.859 91.9856 138.807 90.8978 138.303C89.81 137.799 88.9672 136.883 88.5547 135.757L82.9824 120.546C82.5699 119.42 82.6216 118.177 83.1261 117.089C83.6306 116.001 84.5465 115.158 85.6724 114.746L99.1659 109.802L107.842 133.486L107.849 133.503Z" fill="white"/>
<path opacity="0.2" d="M93.1535 112L99.1753 109.8L107.852 133.496L101.83 135.703C101.429 135.316 101.123 134.841 100.935 134.316L93.3679 113.64C93.17 113.118 93.0966 112.556 93.1535 112Z" fill="#4D65F1"/>
<path d="M112.698 115.702L112.105 115.919L113.55 119.862L114.142 119.645L112.698 115.702Z" fill="#4D65F1"/>
<path d="M111.194 113.463L109.069 107.649C108.704 106.664 108.047 105.813 107.184 105.212C106.322 104.611 105.296 104.289 104.245 104.289C103.647 104.287 103.053 104.391 102.492 104.598L98.6582 106.004L98.4375 105.411L102.278 104.005C102.908 103.774 103.574 103.656 104.245 103.658C105.426 103.661 106.578 104.025 107.546 104.701C108.514 105.377 109.252 106.333 109.661 107.441L111.786 113.255L111.194 113.463Z" fill="#4D65F1"/>
<path d="M107.954 135.202L113.585 133.165C115.425 132.5 116.377 130.469 115.711 128.629L108.068 107.498C107.403 105.659 105.372 104.707 103.532 105.372L97.9012 107.409C96.0615 108.074 95.1095 110.105 95.7749 111.945L103.418 133.076C104.083 134.915 106.114 135.867 107.954 135.202Z" fill="#4D65F1"/>
<path d="M104.731 113.911C104.859 114.263 104.881 114.644 104.792 115.008C104.704 115.372 104.509 115.701 104.233 115.954C103.958 116.208 103.613 116.373 103.243 116.43C102.873 116.487 102.494 116.433 102.155 116.275C101.816 116.117 101.531 115.862 101.337 115.542C101.143 115.222 101.048 114.851 101.064 114.477C101.081 114.103 101.208 113.742 101.43 113.441C101.651 113.139 101.957 112.91 102.309 112.782C102.78 112.612 103.3 112.635 103.753 112.846C104.207 113.058 104.559 113.441 104.731 113.911Z" fill="#263238"/>
<path d="M109.441 126.768C109.569 127.12 109.59 127.501 109.501 127.864C109.412 128.228 109.218 128.557 108.942 128.81C108.667 129.062 108.322 129.228 107.953 129.285C107.583 129.343 107.205 129.289 106.866 129.131C106.526 128.974 106.242 128.719 106.047 128.399C105.853 128.08 105.757 127.71 105.773 127.336C105.789 126.962 105.915 126.602 106.136 126.3C106.356 125.998 106.662 125.768 107.013 125.639C107.246 125.554 107.494 125.515 107.743 125.526C107.991 125.536 108.235 125.596 108.461 125.701C108.686 125.805 108.889 125.954 109.057 126.137C109.225 126.32 109.355 126.535 109.441 126.768Z" fill="#263238"/>
<path d="M54.1595 125.249L54.109 125.192C53.1253 124.208 52.0849 123.136 51.1454 122.039C50.2058 120.942 49.2852 119.845 48.4466 118.71C47.6243 117.602 46.8765 116.442 46.2081 115.235C45.7298 114.372 45.3227 113.472 44.9911 112.543C45.3694 111.282 45.773 110.02 46.2522 108.81C46.8008 107.353 47.4188 105.922 48.0935 104.509C48.7682 103.097 49.487 101.71 50.2626 100.354C50.6409 99.6729 51.0382 98.9982 51.448 98.3361L52.0786 97.3651C52.2741 97.0498 52.5074 96.7345 52.6713 96.4634L52.7407 96.3625C53.1889 95.6792 53.3544 94.8487 53.2022 94.0458C53.05 93.243 52.592 92.5306 51.9248 92.0588C51.2576 91.587 50.4333 91.3927 49.6257 91.5168C48.818 91.6409 48.0901 92.0738 47.5953 92.7241C47.28 93.1529 47.0404 93.4934 46.7882 93.8655C46.536 94.2375 46.309 94.6095 46.0694 94.9816C45.609 95.7256 45.1613 96.476 44.7326 97.239C43.8795 98.7611 43.1071 100.327 42.4184 101.93C42.0653 102.725 41.7878 103.538 41.4284 104.352C41.069 105.165 40.8294 105.991 40.5772 106.836C40.0419 108.51 39.6019 110.213 39.2593 111.937V112.082C39.1614 112.543 39.1942 113.021 39.3539 113.463C39.9649 115.08 40.7762 116.614 41.7689 118.029C42.7038 119.371 43.7455 120.637 44.8839 121.812C45.9929 122.944 47.17 124.008 48.4087 124.996C49.6469 125.983 50.9464 126.891 52.2993 127.714C52.6278 127.906 53.0151 127.972 53.3886 127.899C53.7621 127.826 54.0962 127.619 54.3283 127.318C54.5603 127.016 54.6744 126.64 54.6491 126.26C54.6238 125.881 54.461 125.523 54.191 125.255L54.1595 125.249Z" fill="#FF8B7B"/>
<path d="M61.4863 128.382L61.4043 128.218C61.1426 127.672 60.7574 127.194 60.2792 126.822C59.801 126.45 59.2428 126.194 58.6488 126.074L53.8628 125.103L51.5234 126.27C51.7757 128.893 55.5212 130.463 55.5212 130.463L56.5868 131.68C56.9462 132.088 57.4435 132.349 57.9834 132.413C58.5233 132.477 59.0679 132.34 59.5127 132.027L60.7738 131.125C61.1976 130.826 61.5018 130.386 61.6322 129.884C61.7627 129.382 61.711 128.85 61.4863 128.382Z" fill="#FF8B7B"/>
<path d="M49.8653 89.1804C47.2107 90.3974 44.3857 94.6096 44.3857 94.6096L50.0608 105.235C50.0608 105.235 56.5114 97.8002 55.9692 94.0799C55.5278 90.9208 53.2451 87.6292 49.8653 89.1804Z" fill="#4D65F1"/>
<g opacity="0.3">
<path opacity="0.3" d="M49.8653 89.1804C47.2107 90.3974 44.3857 94.6096 44.3857 94.6096L50.0608 105.235C50.0608 105.235 56.5114 97.8002 55.9692 94.0799C55.5278 90.9208 53.2451 87.6292 49.8653 89.1804Z" fill="white"/>
</g>
<path d="M231.531 228.396C225.976 228.396 220.515 227.254 217.867 223.799C205.331 207.404 205.445 174.426 205.552 142.513C205.615 125.33 206.971 109.093 205.06 96.4822C203.938 89.0479 200.016 83.9466 196.056 81.3109C190.179 77.4266 182.108 79.5138 178.659 80.4029C178.229 80.5229 177.78 80.556 177.337 80.5003C176.895 80.4446 176.467 80.3012 176.081 80.0785C175.694 79.8557 175.356 79.5581 175.086 79.2031C174.816 78.8481 174.619 78.4427 174.508 78.0108C174.396 77.5789 174.372 77.129 174.437 76.6876C174.501 76.2462 174.653 75.8221 174.883 75.44C175.113 75.058 175.418 74.7257 175.778 74.4627C176.138 74.1996 176.547 74.0111 176.981 73.9081C181.288 72.792 191.39 70.1878 199.751 75.7115C205.394 79.4381 210.275 86.0905 211.694 95.4796C213.68 108.595 212.324 125.072 212.261 142.513C212.154 173.304 212.047 205.141 223.195 219.7C224.097 220.873 227.609 221.926 233.442 221.623C233.959 221.623 234.463 221.567 234.961 221.523C234.736 221.066 234.619 220.563 234.621 220.053C234.621 219.164 234.974 218.31 235.604 217.681C236.233 217.052 237.086 216.699 237.976 216.699C245.309 216.699 249.168 217.329 249.912 220.684C250.126 221.649 250.24 224.07 246.696 225.728C244.048 226.971 237.73 228.396 231.531 228.396Z" fill="#4D65F1"/>
<path d="M158.121 231.29L151.279 228.597L154.886 216.737L161.734 219.423L158.121 231.29Z" fill="#FFC3BD"/>
<path d="M151.115 227.872L158.833 230.899C158.931 230.939 159.013 231.01 159.065 231.101C159.118 231.193 159.138 231.299 159.123 231.403L158.367 236.208C158.347 236.324 158.302 236.435 158.234 236.531C158.166 236.627 158.077 236.707 157.974 236.764C157.871 236.822 157.757 236.855 157.639 236.863C157.522 236.87 157.404 236.851 157.295 236.807C155.359 236.006 152.326 234.682 149.873 233.717C148.366 233.125 145.497 232.179 143.41 231.359C141.323 230.539 141.865 228.37 142.779 228.522C146.935 229.19 148.524 228.478 150.182 227.86C150.483 227.744 150.817 227.749 151.115 227.872Z" fill="#263238"/>
<path opacity="0.2" d="M161.733 219.429L154.886 216.737L153.025 222.853L159.873 225.546L161.733 219.429Z" fill="black"/>
<path d="M170.29 127.619C170.29 127.619 164.098 158.227 161.734 173.322C159.073 190.24 152.042 221.144 152.042 221.144L161.141 224.719C161.141 224.719 174.137 193.078 175.947 177.755C181.401 165.302 192.247 128.653 192.247 128.653L170.29 127.619Z" fill="#4D65F1"/>
<path d="M151.601 221.195L161.589 225.123L163.297 222.096L152.13 217.468L151.601 221.195Z" fill="#263238"/>
<path d="M149.155 228.005C148.807 227.896 148.505 227.674 148.297 227.374C148.24 227.263 148.21 227.14 148.21 227.015C148.21 226.89 148.24 226.766 148.297 226.655C148.323 226.587 148.367 226.527 148.425 226.482C148.483 226.438 148.553 226.41 148.625 226.403C149.287 226.334 150.517 227.948 150.637 228.137C150.65 228.158 150.658 228.182 150.658 228.206C150.658 228.231 150.65 228.255 150.637 228.276C150.624 228.297 150.605 228.313 150.582 228.323C150.56 228.333 150.535 228.336 150.511 228.333C150.048 228.273 149.594 228.163 149.155 228.005ZM148.821 226.687C148.77 226.662 148.713 226.651 148.657 226.655C148.619 226.655 148.575 226.655 148.531 226.762C148.489 226.838 148.467 226.922 148.467 227.008C148.467 227.094 148.489 227.179 148.531 227.254C148.714 227.589 149.344 227.885 150.259 228.036C149.874 227.495 149.386 227.036 148.821 226.687Z" fill="#4D65F1"/>
<path d="M150.497 228.326C150.477 228.319 150.459 228.306 150.447 228.288C150.043 227.809 149.476 226.327 149.816 225.817C149.869 225.737 149.947 225.679 150.038 225.65C150.128 225.621 150.226 225.624 150.314 225.659C150.408 225.683 150.496 225.726 150.572 225.786C150.648 225.845 150.71 225.92 150.756 226.006C151.147 226.706 150.705 228.181 150.686 228.244C150.679 228.267 150.666 228.287 150.648 228.302C150.63 228.318 150.609 228.328 150.586 228.333C150.572 228.339 150.556 228.342 150.541 228.341C150.525 228.34 150.51 228.335 150.497 228.326ZM150.283 225.918H150.232C150.068 225.88 150.031 225.918 150.012 225.974C149.823 226.277 150.132 227.349 150.491 227.935C150.671 227.352 150.671 226.728 150.491 226.145C150.451 226.046 150.377 225.966 150.283 225.918Z" fill="#4D65F1"/>
<path opacity="0.2" d="M183.64 146.151C180.209 150.401 178.854 161.235 178.866 170.264C181.18 163.889 183.835 155.793 186.168 148.44L183.64 146.151Z" fill="black"/>
<path d="M199.297 232.431H191.944L190.967 220.072H198.319L199.297 232.431Z" fill="#FFC3BD"/>
<path d="M191.527 231.813H199.819C199.926 231.812 200.029 231.848 200.112 231.915C200.194 231.982 200.251 232.075 200.273 232.179L201.326 236.921C201.351 237.037 201.349 237.156 201.321 237.271C201.293 237.386 201.24 237.494 201.165 237.585C201.089 237.677 200.995 237.75 200.887 237.8C200.78 237.85 200.663 237.875 200.544 237.873C198.451 237.835 195.153 237.709 192.517 237.709C190.891 237.709 187.877 237.879 185.638 237.879C183.4 237.879 183.116 235.666 184.017 235.464C188.135 234.563 189.358 233.327 190.67 232.141C190.906 231.931 191.211 231.815 191.527 231.813Z" fill="#263238"/>
<path opacity="0.2" d="M198.319 220.072H190.96L191.471 226.447H198.829L198.319 220.072Z" fill="black"/>
<path d="M179.194 128.004C179.194 128.004 183.268 162.111 184.125 174.388C185.317 191.476 189.926 225.211 189.926 225.211H199.7C199.7 225.211 200.747 190.757 198.981 175.428C201.415 162.054 200.646 129.032 200.646 129.032L179.194 128.004Z" fill="#4D65F1"/>
<path d="M189.535 225.419H200.267L200.753 221.983L188.665 221.756L189.535 225.419Z" fill="#263238"/>
<path d="M189.731 232.652C189.368 232.679 189.006 232.584 188.703 232.381C188.609 232.298 188.536 232.195 188.49 232.078C188.444 231.962 188.426 231.837 188.438 231.712C188.438 231.638 188.459 231.565 188.498 231.501C188.537 231.438 188.593 231.387 188.659 231.353C189.252 231.05 190.973 232.11 191.181 232.229C191.203 232.242 191.221 232.26 191.232 232.283C191.243 232.305 191.247 232.331 191.244 232.355C191.238 232.381 191.226 232.404 191.208 232.423C191.191 232.442 191.168 232.455 191.143 232.463C190.681 232.579 190.207 232.642 189.731 232.652ZM188.936 231.548C188.88 231.545 188.824 231.556 188.772 231.58C188.741 231.58 188.703 231.63 188.697 231.725C188.684 231.81 188.692 231.897 188.722 231.977C188.752 232.058 188.802 232.129 188.867 232.185C189.157 232.431 189.857 232.463 190.759 232.28C190.21 231.922 189.598 231.674 188.955 231.548H188.936Z" fill="#4D65F1"/>
<path d="M191.118 232.463H191.054C190.506 232.16 189.434 230.994 189.547 230.395C189.566 230.302 189.617 230.218 189.691 230.158C189.764 230.099 189.856 230.066 189.951 230.067C190.046 230.053 190.144 230.06 190.236 230.087C190.328 230.115 190.414 230.161 190.487 230.224C191.118 230.735 191.237 232.274 191.244 232.337C191.245 232.36 191.24 232.383 191.23 232.404C191.221 232.425 191.206 232.443 191.187 232.456C191.165 232.464 191.141 232.466 191.118 232.463ZM190.039 230.3H189.982C189.819 230.3 189.806 230.401 189.8 230.432C189.73 230.779 190.43 231.693 190.96 232.084C190.921 231.475 190.702 230.891 190.329 230.407C190.247 230.34 190.145 230.302 190.039 230.3Z" fill="#4D65F1"/>
<path d="M182.568 80.9703L176.679 80.8947C174.699 80.8947 172.731 80.8316 170.783 80.8001C170.19 80.8001 169.61 80.7622 169.024 80.737C169.061 80.737 169.087 80.6677 169.118 80.6361C169.534 80.1947 169.951 79.7407 170.379 79.3056C170.594 79.0786 170.804 78.8579 171.01 78.6436C171.205 78.4292 171.458 78.1896 171.59 78.013L172.126 77.332C172.548 76.7931 172.791 76.1348 172.818 75.4506C172.845 74.7663 172.656 74.0909 172.278 73.52C171.9 72.9492 171.351 72.5119 170.711 72.2703C170.07 72.0287 169.369 71.995 168.708 72.174L167.542 72.4893C167.182 72.5965 166.823 72.7163 166.464 72.8361C165.757 73.082 165.064 73.3531 164.376 73.6495C162.991 74.2611 161.653 74.9734 160.372 75.7808C159.046 76.6287 157.791 77.584 156.621 78.6372C155.382 79.7635 154.26 81.0121 153.272 82.3639C153.023 82.7012 152.811 83.0649 152.642 83.4484C152.056 84.7906 152.027 86.3103 152.562 87.6736C153.096 89.0369 154.15 90.1323 155.492 90.7188L156.066 90.971C157.361 91.5285 158.703 91.9716 160.076 92.2952C161.274 92.6042 162.409 92.806 163.525 92.9951C164.641 93.1843 165.732 93.3356 166.817 93.4681C167.901 93.6005 168.973 93.7014 170.045 93.7897C172.183 93.9788 174.301 94.0734 176.414 94.1365C178.526 94.1995 180.594 94.1995 182.789 94.0986C184.5 94.0256 186.115 93.2873 187.29 92.0412C188.464 90.795 189.106 89.1393 189.078 87.4269C189.05 85.7145 188.355 84.0807 187.14 82.8735C185.925 81.6663 184.287 80.9812 182.574 80.964L182.568 80.9703Z" fill="#FFC3BD"/>
<path d="M185.997 92.4781C180.909 98.2792 168.663 96.1101 168.663 96.1101L169.338 81.6576C173.535 80.7339 177.815 80.2374 182.113 80.1758C189.301 80.1632 190.071 87.8245 185.997 92.4781Z" fill="#263238"/>
<path d="M172.415 88.0326C172.113 90.3657 171.785 93.5059 171.589 97.7306C168.935 111.162 167.945 120.677 170.29 127.619C172.144 129.908 196.301 129.467 200.646 129.025C203.168 122.783 203.433 104.862 203.729 89.7982C203.766 87.7223 203.058 85.7019 201.734 84.1032C200.409 82.5045 198.556 81.4333 196.509 81.0838C191.073 80.1202 185.527 79.9334 180.039 80.5289C178.112 80.7481 176.315 81.6061 174.933 82.9662C173.551 84.3262 172.665 86.1099 172.415 88.0326Z" fill="#263238"/>
<path opacity="0.2" d="M195.854 97.2009C195.935 101.791 199.265 109.125 203.01 112.845C203.237 108.967 203.382 104.761 203.496 100.518L195.854 97.2009Z" fill="black"/>
<path d="M216.902 106.123L216.687 105.619C215.806 103.516 214.775 101.478 213.604 99.5215C212.481 97.6298 211.271 95.8453 210.016 94.1239C208.761 92.4024 207.431 90.7567 206.069 89.155C205.375 88.3605 204.688 87.566 203.962 86.7967L202.872 85.6491L201.711 84.4763C200.496 83.2762 198.861 82.5966 197.153 82.5814C195.445 82.5663 193.799 83.2167 192.562 84.395C191.326 85.5732 190.597 87.1867 190.529 88.8933C190.462 90.6 191.062 92.2657 192.202 93.5374L192.392 93.7455L196.093 97.8631C197.354 99.2629 198.559 100.688 199.757 102.107C200.337 102.819 200.936 103.532 201.478 104.257C202.02 104.982 202.594 105.682 203.136 106.401C203.918 107.492 204.675 108.576 205.35 109.642C205.246 110.18 205.116 110.712 204.959 111.237C204.506 112.765 203.973 114.268 203.363 115.74C202.733 117.297 202.064 118.892 201.371 120.462C200.677 122.033 199.933 123.672 199.271 125.248L199.208 125.387C198.918 126.084 198.873 126.859 199.083 127.584C199.293 128.31 199.743 128.942 200.361 129.376C200.978 129.81 201.725 130.021 202.479 129.974C203.232 129.926 203.947 129.623 204.505 129.114C205.896 127.824 207.215 126.46 208.458 125.028C209.719 123.611 210.903 122.119 212.008 120.551C212.57 119.762 213.106 118.943 213.635 118.092C214.185 117.226 214.689 116.331 215.142 115.412C215.653 114.408 216.095 113.372 216.466 112.309C216.95 110.948 217.223 109.522 217.274 108.078C217.29 107.408 217.163 106.741 216.902 106.123Z" fill="#FFC3BD"/>
<path d="M196.938 81.1657C205.444 82.6223 210.987 94.1364 210.987 94.1364L200.734 105.165C200.734 105.165 194.826 99.1493 191.276 93.5752C187.448 87.5092 190.847 80.1316 196.938 81.1657Z" fill="#263238"/>
<path d="M181.402 63.0119C179.976 60.6221 179.51 57.3368 182.12 53.9886C181.612 54.0523 181.096 53.9671 180.634 53.7433C180.173 53.5194 179.787 53.1665 179.522 52.7274C182.381 50.3888 185.975 49.1378 189.668 49.1963C197.298 49.1963 197.865 52.141 197.607 54.1525C202.828 54.4867 206.637 68.0627 193.401 70.4651C185.828 62.4885 181.402 63.0119 181.402 63.0119Z" fill="#263238"/>
<path d="M197.127 54.3985C197.127 54.3985 199.252 52.2293 196.61 49.6062C197.203 49.7686 197.743 50.0817 198.178 50.5148C198.614 50.948 198.929 51.4865 199.095 52.078C199.467 53.604 198.439 54.8272 197.127 54.3985Z" fill="#263238"/>
<path d="M194.201 68.8068C193.999 72.9874 193.621 77.7418 194.321 81.0775C193.236 82.7863 190.462 84.7537 185.493 85.1951C183.727 84.1925 181.394 81.7396 182.208 80.4785C184.32 79.1228 185.216 75.0178 184.61 71.947L194.201 68.8068Z" fill="#FFC3BD"/>
<path opacity="0.2" d="M191.78 69.595L184.598 71.947C184.842 73.2547 184.853 74.5954 184.629 75.9069C186.773 75.8375 189.743 74.2233 190.859 72.71C191.223 72.2845 191.493 71.7872 191.651 71.2505C191.81 70.7138 191.854 70.1497 191.78 69.595Z" fill="black"/>
<path d="M196.295 62.1859C194.964 67.3124 194.447 70.3832 191.307 72.5334C186.584 75.7682 180.644 72.1425 180.411 66.7259C180.209 61.8454 182.416 54.2787 187.902 53.2004C189.11 52.9582 190.36 53.0288 191.533 53.4055C192.706 53.7823 193.763 54.4527 194.604 55.353C195.445 56.2533 196.042 57.3537 196.338 58.5496C196.634 59.7456 196.619 60.9973 196.295 62.1859Z" fill="#FFC3BD"/>
<path d="M195.235 54.8462C192.984 56.4478 190.191 63.2327 195.866 65.9567C200.961 61.4797 199.643 54.8462 195.235 54.8462Z" fill="#263238"/>
<path d="M196.534 55.6595C197.499 51.1951 186.231 48.8873 182.662 54.102C181.451 57.2422 195.853 60.0167 196.534 55.6595Z" fill="#263238"/>
<path d="M188.129 67.6276C186.959 67.0983 185.703 66.7802 184.422 66.6881C184.404 66.6881 184.386 66.6917 184.369 66.6988C184.353 66.7058 184.338 66.7161 184.326 66.7291C184.313 66.7421 184.304 66.7574 184.297 66.7742C184.291 66.791 184.288 66.8089 184.289 66.8268C184.296 66.8676 184.317 66.9048 184.348 66.9322C184.379 66.9597 184.418 66.9759 184.459 66.9782C185.688 67.067 186.892 67.37 188.016 67.8736C188.051 67.8891 188.091 67.8905 188.127 67.8776C188.164 67.8647 188.194 67.8385 188.211 67.8042C188.218 67.7873 188.222 67.7691 188.221 67.7508C188.221 67.7326 188.217 67.7146 188.209 67.698C188.201 67.6814 188.19 67.6666 188.177 67.6545C188.163 67.6424 188.147 67.6332 188.129 67.6276Z" fill="#263238"/>
<path d="M197.524 67.7915C196.61 68.7614 195.35 69.3304 194.018 69.3742C192.252 69.4121 191.805 67.7285 192.656 66.2908C193.425 65.0297 195.267 63.4154 196.868 64.0586C198.47 64.7018 198.634 66.5871 197.524 67.7915Z" fill="#FFC3BD"/>
<path d="M188.142 62.0976C188.06 62.5201 187.77 62.8228 187.511 62.766C187.253 62.7093 187.082 62.3246 187.164 61.9022C187.246 61.4797 187.536 61.1833 187.795 61.2716C188.053 61.3599 188.224 61.6562 188.142 62.0976Z" fill="#263238"/>
<path d="M183.368 61.1706C183.286 61.5931 182.996 61.8895 182.738 61.839C182.479 61.7886 182.303 61.3976 182.385 60.9752C182.466 60.5527 182.757 60.25 183.015 60.3068C183.274 60.3635 183.425 60.7482 183.368 61.1706Z" fill="#263238"/>
<path d="M184.844 61.6562C184.088 62.8497 183.171 63.9338 182.12 64.8784C182.751 65.7171 184.144 65.5531 184.144 65.5531L184.844 61.6562Z" fill="#ED847E"/>
<path d="M187.455 59.6447C187.5 59.6348 187.547 59.6366 187.591 59.6499C187.635 59.6631 187.675 59.6874 187.707 59.7204C187.909 59.9651 188.167 60.1584 188.459 60.2844C188.75 60.4104 189.067 60.4657 189.384 60.4455C189.451 60.4364 189.519 60.4537 189.573 60.4938C189.627 60.5338 189.663 60.5934 189.674 60.6599C189.68 60.6927 189.678 60.7263 189.67 60.7585C189.662 60.7908 189.648 60.8211 189.628 60.8476C189.608 60.8741 189.583 60.8963 189.554 60.9128C189.525 60.9293 189.493 60.9398 189.46 60.9437C189.06 60.9759 188.657 60.912 188.287 60.7574C187.916 60.6027 187.587 60.3618 187.329 60.0546C187.305 60.0316 187.286 60.0042 187.273 59.9739C187.261 59.9435 187.254 59.9109 187.254 59.878C187.254 59.8451 187.261 59.8125 187.273 59.7821C187.286 59.7518 187.305 59.7244 187.329 59.7015C187.366 59.6736 187.409 59.6543 187.455 59.6447Z" fill="#263238"/>
<path d="M181.893 58.2449C181.841 58.2341 181.794 58.2051 181.761 58.163C181.74 58.1367 181.724 58.1064 181.715 58.0739C181.705 58.0415 181.703 58.0074 181.707 57.9739C181.711 57.9404 181.722 57.908 181.739 57.8788C181.756 57.8495 181.778 57.8239 181.805 57.8036C182.115 57.5497 182.481 57.3733 182.872 57.2889C183.263 57.2044 183.669 57.2144 184.056 57.318C184.12 57.3396 184.173 57.3854 184.204 57.4455C184.234 57.5055 184.24 57.5752 184.22 57.6396C184.195 57.7005 184.148 57.7501 184.089 57.7791C184.03 57.8081 183.962 57.8146 183.899 57.7972C183.59 57.7187 183.268 57.7143 182.958 57.7844C182.648 57.8546 182.358 57.9973 182.114 58.2008C182.085 58.2273 182.049 58.2454 182.01 58.2531C181.971 58.2609 181.931 58.2581 181.893 58.2449Z" fill="#263238"/>
<path d="M202.248 125.065L196.831 125.028L199.631 131.245C199.631 131.245 204.253 130.255 204 127.745L202.248 125.065Z" fill="#FFC3BD"/>
<path d="M194.075 129.296L194.964 131.049C195.203 131.516 195.607 131.877 196.098 132.061C196.589 132.246 197.131 132.24 197.619 132.046L199.63 131.245L196.83 125.028L194.68 126.667C194.286 126.964 194.01 127.391 193.899 127.872C193.789 128.352 193.851 128.857 194.075 129.296Z" fill="#FFC3BD"/>
<path d="M161.015 120.488C160.36 120.481 159.722 120.283 159.179 119.919C158.635 119.555 158.209 119.04 157.954 118.437C157.699 117.835 157.626 117.171 157.743 116.527C157.859 115.883 158.162 115.287 158.612 114.813C161.021 112.328 163.196 110.399 165.113 108.715C169.742 104.635 171.337 103.04 171.186 99.9818C170.959 98.0949 170.558 96.233 169.988 94.4202C168.607 89.3442 167.043 83.5998 169.723 78.9904C171.16 76.5123 173.601 74.8161 176.981 73.9459C177.835 73.7431 178.735 73.8835 179.487 74.3369C180.239 74.7904 180.784 75.5207 181.003 76.371C181.223 77.2214 181.1 78.1239 180.662 78.8848C180.223 79.6457 179.504 80.2043 178.658 80.4407C176.281 81.0712 175.707 82.036 175.505 82.3639C174.244 84.5393 175.461 89.0415 176.445 92.6547C177.157 94.9331 177.634 97.2783 177.87 99.6539C178.185 106.117 174.37 109.484 169.534 113.747C167.711 115.361 165.637 117.19 163.405 119.485C163.093 119.803 162.721 120.056 162.311 120.228C161.901 120.4 161.46 120.488 161.015 120.488Z" fill="#4D65F1"/>
<path d="M168.373 72.3127L173.62 70.9696L172.396 77.6788C172.396 77.6788 167.673 77.8238 167.32 75.3331L168.373 72.3127Z" fill="#FFC3BD"/>
<path d="M177.302 74.526L176.899 76.2789C176.775 76.8144 176.455 77.2841 176.002 77.5957C175.549 77.9072 174.996 78.0381 174.452 77.9625L172.396 77.6788L173.62 70.9696L176.028 72.01C176.502 72.2139 176.889 72.5774 177.121 73.0372C177.354 73.4969 177.418 74.0238 177.302 74.526Z" fill="#FFC3BD"/>
<path d="M159.14 109.454L158.997 109.312C158.359 108.674 157.325 108.674 156.687 109.312L138.093 127.913C137.455 128.551 137.456 129.585 138.093 130.223L138.236 130.365C138.874 131.003 139.908 131.003 140.546 130.365L159.14 111.764C159.778 111.126 159.777 110.092 159.14 109.454Z" fill="#263238"/>
<path d="M168.831 119.133L168.688 118.99C168.05 118.352 167.016 118.352 166.378 118.99L147.781 137.588C147.143 138.225 147.143 139.26 147.781 139.897L147.924 140.04C148.561 140.678 149.595 140.678 150.233 140.04L168.831 121.443C169.468 120.805 169.468 119.771 168.831 119.133Z" fill="#263238"/>
<path d="M143.96 116.378L157.064 103.274C157.484 102.854 157.982 102.521 158.531 102.294C159.079 102.067 159.667 101.95 160.261 101.95C160.855 101.95 161.443 102.067 161.991 102.294C162.54 102.521 163.038 102.854 163.458 103.274L174.913 114.729C175.332 115.148 175.665 115.647 175.893 116.195C176.12 116.744 176.237 117.332 176.237 117.925C176.237 118.519 176.12 119.107 175.893 119.656C175.665 120.204 175.332 120.703 174.913 121.122L161.808 134.227L143.96 116.378Z" fill="#4D65F1"/>
<path opacity="0.7" d="M143.96 116.378L157.064 103.274C157.484 102.854 157.982 102.521 158.531 102.294C159.079 102.067 159.667 101.95 160.261 101.95C160.855 101.95 161.443 102.067 161.991 102.294C162.54 102.521 163.038 102.854 163.458 103.274L174.913 114.729C175.332 115.148 175.665 115.647 175.893 116.195C176.12 116.744 176.237 117.332 176.237 117.925C176.237 118.519 176.12 119.107 175.893 119.656C175.665 120.204 175.332 120.703 174.913 121.122L161.808 134.227L143.96 116.378Z" fill="white"/>
<path opacity="0.2" d="M148.479 111.824L143.939 116.357L161.791 134.209L166.324 129.669C166.144 129.141 165.844 128.662 165.448 128.269L149.879 112.732C149.49 112.324 149.01 112.013 148.479 111.824Z" fill="#4D65F1"/>
<path d="M143.174 114.071L142.849 114.397C141.465 115.781 141.465 118.024 142.849 119.408L158.744 135.304C160.128 136.688 162.372 136.688 163.756 135.304L164.081 134.978C165.465 133.594 165.465 131.351 164.081 129.967L148.186 114.071C146.802 112.687 144.558 112.687 143.174 114.071Z" fill="#4D65F1"/>
<path d="M192.58 0.466675H51.9392C49.0069 0.466675 46.6299 2.84374 46.6299 5.77601V31.4273C46.6299 34.3595 49.0069 36.7366 51.9392 36.7366H192.58C195.512 36.7366 197.889 34.3595 197.889 31.4273V5.77601C197.889 2.84374 195.512 0.466675 192.58 0.466675Z" fill="white"/>
<path d="M192.581 37.2031H51.9654C50.434 37.2015 48.9659 36.5924 47.883 35.5096C46.8002 34.4267 46.1911 32.9586 46.1895 31.4272V5.77594C46.1911 4.24458 46.8002 2.77642 47.883 1.69358C48.9659 0.61074 50.434 0.00166906 51.9654 0H192.581C194.112 0.00166906 195.58 0.61074 196.663 1.69358C197.746 2.77642 198.355 4.24458 198.357 5.77594V31.4272C198.355 32.9586 197.746 34.4267 196.663 35.5096C195.58 36.5924 194.112 37.2015 192.581 37.2031ZM51.9654 0.933231C50.6815 0.934899 49.4508 1.44565 48.5429 2.35347C47.6351 3.2613 47.1244 4.49209 47.1227 5.77594V31.4272C47.1244 32.711 47.6351 33.9418 48.5429 34.8497C49.4508 35.7575 50.6815 36.2682 51.9654 36.2699H192.581C193.864 36.2682 195.095 35.7575 196.003 34.8497C196.911 33.9418 197.422 32.711 197.423 31.4272V5.77594C197.422 4.49209 196.911 3.2613 196.003 2.35347C195.095 1.44565 193.864 0.934899 192.581 0.933231H51.9654Z" fill="#263238"/>
<g opacity="0.4">
<path opacity="0.4" d="M59.0645 24.9071V11.2617H64.2098C64.9057 11.2486 65.6015 11.2908 66.2907 11.3878C66.8907 11.4744 67.465 11.6895 67.9743 12.0184C68.4465 12.3552 68.8225 12.8095 69.0652 13.3363C69.4332 14.1181 69.5636 14.9907 69.4403 15.8459C69.317 16.7012 68.9454 17.5014 68.3715 18.1475C67.6359 18.9462 66.3033 19.3476 64.3738 19.3518H60.8679V24.9008L59.0645 24.9071ZM60.8679 17.7502H64.399C65.2756 17.8398 66.1557 17.6165 66.8834 17.1196C67.1338 16.8883 67.3299 16.6043 67.4574 16.2881C67.585 15.9719 67.6409 15.6314 67.6212 15.291C67.6359 14.7675 67.4835 14.2529 67.1861 13.8218C66.9116 13.4277 66.5078 13.1421 66.0448 13.0147C65.4893 12.9159 64.925 12.8757 64.3612 12.8949H60.8679V17.7502Z" fill="#263238"/>
<path opacity="0.4" d="M78.0192 23.6901C77.4875 24.1578 76.8825 24.5349 76.2284 24.8062C75.6369 25.0235 75.0111 25.1324 74.3809 25.1278C73.4699 25.1912 72.5688 24.9073 71.8586 24.3333C71.5747 24.0785 71.3497 23.7648 71.1994 23.4141C71.0491 23.0635 70.9771 22.6842 70.9885 22.3029C70.9823 21.8387 71.0952 21.3806 71.3164 20.9724C71.5336 20.5986 71.8334 20.2794 72.1928 20.0392C72.565 19.7937 72.9736 19.6086 73.4035 19.4906C73.8942 19.3777 74.3911 19.2935 74.8916 19.2383C75.9044 19.1461 76.9056 18.9539 77.8805 18.6645C77.8805 18.4375 77.8805 18.2862 77.8805 18.2294C77.9085 17.969 77.8809 17.7055 77.7994 17.4566C77.7178 17.2076 77.5843 16.9789 77.4076 16.7855C76.8664 16.3738 76.1943 16.1722 75.5159 16.218C74.9055 16.1737 74.2962 16.3167 73.7692 16.6278C73.3352 17.0106 73.0421 17.5279 72.9369 18.097L71.2974 17.87C71.4105 17.2557 71.6629 16.6754 72.0352 16.1738C72.4257 15.709 72.9392 15.3637 73.517 15.1775C74.2395 14.9327 74.9991 14.8154 75.7618 14.8307C76.4592 14.8068 77.1552 14.9072 77.8174 15.1271C78.2489 15.2496 78.6365 15.4927 78.9347 15.8278C79.2329 16.1628 79.4294 16.576 79.501 17.0188C79.5709 17.5306 79.5983 18.0473 79.583 18.5636V20.7958C79.5584 21.7829 79.5942 22.7705 79.6902 23.7532C79.7664 24.1685 79.9091 24.5687 80.1127 24.9386H78.366C78.1743 24.5475 78.0567 24.1241 78.0192 23.6901ZM77.8805 19.9446C76.9963 20.2617 76.0777 20.4733 75.1439 20.5751C74.6442 20.6287 74.1529 20.7431 73.681 20.9156C73.4105 21.0253 73.1797 21.2144 73.0189 21.4579C72.8331 21.7549 72.7589 22.1082 72.8098 22.4548C72.8606 22.8014 73.0331 23.1185 73.2963 23.3496C73.7176 23.6776 74.2457 23.8372 74.7781 23.7973C75.379 23.8088 75.9724 23.6632 76.4996 23.3748C76.9817 23.1136 77.3698 22.7078 77.6094 22.2146C77.8156 21.6827 77.9079 21.1134 77.8805 20.5436V19.9446Z" fill="#263238"/>
<path opacity="0.4" d="M81.8657 25.7142L83.4925 25.9538C83.5069 26.1658 83.5647 26.3726 83.6624 26.5614C83.76 26.7501 83.8953 26.9168 84.06 27.051C84.561 27.3891 85.1592 27.553 85.7626 27.5176C86.3962 27.5591 87.0263 27.3954 87.5597 27.051C87.9877 26.7308 88.2909 26.2715 88.4172 25.7521C88.5299 25.0412 88.5701 24.3208 88.537 23.6019C88.2063 24.0058 87.7881 24.3292 87.314 24.5477C86.8399 24.7662 86.3223 24.874 85.8004 24.863C85.195 24.8929 84.5915 24.7748 84.0421 24.5188C83.4927 24.2628 83.014 23.8766 82.6476 23.3938C81.8889 22.3754 81.4937 21.1321 81.5252 19.8626C81.5155 18.9661 81.6916 18.0773 82.0422 17.2521C82.3436 16.5038 82.8591 15.8612 83.5241 15.4045C84.2059 14.9682 85.0039 14.7483 85.813 14.774C86.3705 14.7666 86.9219 14.8906 87.4226 15.136C87.9232 15.3814 88.359 15.7413 88.6947 16.1864V14.9947H90.2396V23.564C90.3079 24.6753 90.1491 25.7888 89.7729 26.8366C89.4484 27.4903 88.9253 28.0245 88.2785 28.3626C87.4987 28.7592 86.6305 28.9502 85.7563 28.9175C84.7416 28.9657 83.7382 28.6872 82.8935 28.123C82.5309 27.8425 82.2461 27.474 82.0662 27.0523C81.8863 26.6307 81.8172 26.1701 81.8657 25.7142ZM83.2466 19.7743C83.1603 20.7823 83.4352 21.788 84.0222 22.6119C84.2564 22.8976 84.5522 23.1265 84.8874 23.2816C85.2227 23.4367 85.5887 23.5138 85.958 23.5073C86.3265 23.5123 86.6915 23.4351 87.0264 23.2813C87.3612 23.1275 87.6576 22.901 87.8939 22.6182C88.4822 21.8139 88.7599 20.824 88.6758 19.8311C88.7507 18.8508 88.4635 17.8772 87.8686 17.0945C87.6361 16.8052 87.3412 16.5722 87.006 16.4128C86.6708 16.2533 86.304 16.1717 85.9328 16.1738C85.5694 16.1727 85.2105 16.2538 84.8829 16.411C84.5553 16.5683 84.2675 16.7976 84.0411 17.0818C83.4576 17.8577 83.1753 18.8188 83.2466 19.787V19.7743Z" fill="#263238"/>
<path opacity="0.4" d="M99.5595 21.7227L101.294 21.9371C101.066 22.8716 100.531 23.7023 99.7739 24.2954C98.9477 24.8773 97.9523 25.17 96.9426 25.1278C96.3072 25.1661 95.6708 25.0696 95.0753 24.8447C94.4798 24.6197 93.9386 24.2714 93.4872 23.8225C92.5907 22.7859 92.1377 21.4383 92.226 20.0707C92.1322 18.6659 92.5839 17.279 93.4872 16.199C93.912 15.7458 94.4289 15.3886 95.0032 15.1515C95.5774 14.9145 96.1957 14.8029 96.8165 14.8244C97.422 14.8034 98.0248 14.913 98.5841 15.1459C99.1434 15.3787 99.646 15.7293 100.058 16.1738C100.95 17.2251 101.402 18.5806 101.319 19.9572C101.319 20.058 101.319 20.2094 101.319 20.4049H93.9475C93.9357 21.3299 94.2632 22.2272 94.8681 22.9271C95.1328 23.2083 95.4538 23.4305 95.8102 23.5794C96.1665 23.7282 96.5503 23.8003 96.9363 23.791C97.4987 23.8051 98.0502 23.6346 98.5064 23.3054C99.0101 22.8971 99.3774 22.345 99.5595 21.7227ZM94.061 19.0176H99.5595C99.5451 18.3379 99.3253 17.6784 98.9289 17.1259C98.681 16.814 98.3639 16.5639 98.0028 16.3954C97.6417 16.2268 97.2464 16.1445 96.8481 16.1549C96.4896 16.146 96.1332 16.2102 95.8004 16.3436C95.4676 16.4769 95.1654 16.6766 94.9122 16.9305C94.3612 17.4861 94.0489 18.2351 94.0421 19.0176H94.061Z" fill="#263238"/>
<path opacity="0.4" d="M108.67 24.9071V14.9947H110.177V16.4008C110.515 15.8778 110.983 15.4525 111.536 15.167C112.09 14.8816 112.708 14.7461 113.33 14.774C113.895 14.7671 114.455 14.8766 114.976 15.0956C115.42 15.2665 115.808 15.5567 116.098 15.9342C116.358 16.3135 116.537 16.7431 116.621 17.1953C116.694 17.7344 116.723 18.2784 116.71 18.8222V24.9008H115.039V18.8915C115.059 18.3734 114.993 17.8555 114.843 17.3593C114.707 17.0211 114.463 16.7373 114.15 16.5521C113.794 16.3448 113.388 16.24 112.977 16.2495C112.297 16.2369 111.638 16.48 111.129 16.9305C110.612 17.3845 110.354 18.2421 110.354 19.5095V24.9071H108.67Z" fill="#263238"/>
<path opacity="0.4" d="M118.653 19.9635C118.653 18.1349 119.161 16.7792 120.179 15.8964C121.044 15.1595 122.151 14.7686 123.287 14.7992C123.905 14.7766 124.52 14.8838 125.094 15.1141C125.667 15.3444 126.186 15.6925 126.617 16.136C127.071 16.632 127.422 17.2138 127.648 17.8473C127.875 18.4808 127.972 19.1531 127.935 19.8248C127.981 20.8565 127.785 21.8847 127.361 22.8263C126.987 23.5446 126.407 24.1351 125.696 24.5225C124.967 24.9351 124.144 25.1523 123.306 25.1531C122.682 25.1828 122.058 25.0796 121.477 24.8503C120.895 24.6209 120.369 24.2706 119.933 23.8226C119.476 23.295 119.128 22.6826 118.909 22.0204C118.689 21.3583 118.602 20.6593 118.653 19.9635ZM120.374 19.9635C120.298 20.98 120.591 21.9899 121.2 22.8074C121.456 23.1106 121.776 23.3528 122.137 23.5165C122.498 23.6801 122.891 23.761 123.287 23.7532C123.682 23.7611 124.074 23.6795 124.434 23.5146C124.793 23.3497 125.11 23.1058 125.362 22.8011C125.98 21.9687 126.276 20.9405 126.194 19.9068C126.268 18.91 125.969 17.9214 125.356 17.1323C125.096 16.8363 124.777 16.5991 124.419 16.4366C124.06 16.2741 123.671 16.1901 123.278 16.1901C122.884 16.1901 122.495 16.2741 122.137 16.4366C121.779 16.5991 121.459 16.8363 121.2 17.1323C120.589 17.9443 120.294 18.9502 120.368 19.9635H120.374Z" fill="#263238"/>
<path opacity="0.4" d="M133.533 23.4064L133.779 24.8882C133.365 24.9821 132.943 25.0328 132.518 25.0396C132.031 25.0636 131.545 24.9638 131.106 24.7495C130.794 24.5791 130.545 24.3141 130.393 23.9928C130.219 23.3481 130.151 22.6794 130.191 22.0129V16.3378H128.962V14.9947H130.191V12.5734L131.856 11.5645V14.9947H133.54V16.3H131.856V22.0822C131.838 22.3918 131.868 22.7023 131.944 23.0028C132.005 23.1375 132.107 23.2499 132.235 23.3244C132.411 23.4181 132.609 23.4618 132.808 23.4505C133.051 23.452 133.293 23.4373 133.533 23.4064Z" fill="#263238"/>
<path opacity="0.4" d="M140.873 24.9071V16.3252H139.392V14.9947H140.873V13.9669C140.848 13.4623 140.908 12.9572 141.05 12.4724C141.209 12.0352 141.509 11.6628 141.901 11.4131C142.419 11.1144 143.013 10.9741 143.61 11.0095C144.135 11.0161 144.659 11.071 145.174 11.1735L144.922 12.6364C144.595 12.5751 144.264 12.5435 143.932 12.5418C143.543 12.5055 143.156 12.6232 142.853 12.8697C142.604 13.2237 142.492 13.6562 142.538 14.0867V14.9947H144.468V16.2999H142.538V24.9071H140.873Z" fill="#263238"/>
<path opacity="0.4" d="M145.143 19.9635C145.143 18.1349 145.652 16.7792 146.669 15.8964C147.537 15.1596 148.646 14.7689 149.784 14.7992C150.401 14.7766 151.017 14.8838 151.59 15.1141C152.164 15.3444 152.683 15.6925 153.113 16.136C153.565 16.633 153.914 17.2153 154.138 17.8487C154.362 18.4822 154.458 19.154 154.418 19.8248C154.467 20.8559 154.273 21.8841 153.851 22.8263C153.477 23.5464 152.894 24.1374 152.18 24.5225C151.453 24.9351 150.632 25.1523 149.796 25.1531C149.172 25.1804 148.549 25.0761 147.968 24.8469C147.387 24.6177 146.86 24.2687 146.423 23.8226C145.967 23.295 145.619 22.6826 145.399 22.0204C145.179 21.3583 145.092 20.6593 145.143 19.9635ZM146.871 19.9635C146.791 20.9804 147.085 21.9914 147.697 22.8074C147.955 23.1053 148.275 23.3443 148.634 23.508C148.993 23.6718 149.383 23.7565 149.778 23.7565C150.172 23.7565 150.562 23.6718 150.921 23.508C151.28 23.3443 151.6 23.1053 151.858 22.8074C152.472 21.9729 152.765 20.9457 152.684 19.9131C152.757 18.9175 152.461 17.93 151.852 17.1386C151.593 16.8426 151.273 16.6055 150.915 16.443C150.557 16.2805 150.168 16.1964 149.774 16.1964C149.381 16.1964 148.992 16.2805 148.634 16.443C148.275 16.6055 147.956 16.8426 147.697 17.1386C147.08 17.9459 146.78 18.9504 146.852 19.9635H146.871Z" fill="#263238"/>
<path opacity="0.4" d="M162.849 24.9072V23.4569C162.513 23.9845 162.046 24.4158 161.493 24.7087C160.941 25.0016 160.321 25.1461 159.696 25.1279C159.134 25.1348 158.577 25.0208 158.063 24.7937C157.621 24.6186 157.234 24.3292 156.941 23.955C156.68 23.5765 156.504 23.1465 156.424 22.6939C156.342 22.1769 156.308 21.6534 156.323 21.1301V14.9948H158V20.4806C157.979 21.071 158.013 21.662 158.101 22.2462C158.191 22.6623 158.428 23.0317 158.769 23.2866C159.137 23.5468 159.58 23.6796 160.03 23.665C160.528 23.6652 161.016 23.53 161.443 23.274C161.866 23.0391 162.197 22.668 162.382 22.221C162.592 21.6002 162.684 20.9459 162.654 20.2915V14.9948H164.331V24.9072H162.849Z" fill="#263238"/>
<path opacity="0.4" d="M166.973 24.9071V14.9947H168.48V16.4008C168.817 15.8778 169.286 15.4525 169.839 15.167C170.392 14.8816 171.011 14.7461 171.633 14.774C172.197 14.7671 172.758 14.8766 173.278 15.0956C173.722 15.2665 174.111 15.5567 174.401 15.9342C174.661 16.3135 174.839 16.7431 174.924 17.1953C174.996 17.7344 175.026 18.2784 175.012 18.8222V24.9008H173.335V18.8915C173.356 18.3734 173.29 17.8555 173.14 17.3593C173.004 17.0211 172.76 16.7373 172.446 16.5521C172.09 16.3448 171.685 16.24 171.273 16.2495C170.594 16.2382 169.935 16.4811 169.426 16.9305C168.908 17.3845 168.65 18.2421 168.65 19.5095V24.9071H166.973Z" fill="#263238"/>
<path opacity="0.4" d="M183.992 24.9071V23.6459C183.705 24.1168 183.296 24.5017 182.809 24.7603C182.322 25.0188 181.775 25.1414 181.224 25.1152C180.454 25.126 179.699 24.9064 179.055 24.4846C178.38 24.0346 177.847 23.4028 177.516 22.6623C177.141 21.8194 176.956 20.9046 176.974 19.9824C176.961 19.0635 177.128 18.1508 177.466 17.2962C177.751 16.539 178.27 15.892 178.947 15.4486C179.604 15.0245 180.373 14.805 181.154 14.8181C181.707 14.8084 182.254 14.9385 182.743 15.1964C183.193 15.4287 183.582 15.7635 183.878 16.1738V11.2617H185.543V24.9071H183.992ZM178.695 19.9761C178.619 20.9868 178.903 21.9919 179.496 22.8136C179.72 23.1029 180.006 23.3378 180.334 23.5005C180.662 23.6632 181.022 23.7496 181.388 23.7531C181.751 23.7569 182.11 23.6776 182.438 23.5213C182.766 23.3651 183.054 23.1359 183.279 22.8514C183.849 22.0582 184.12 21.0885 184.042 20.1148C184.129 19.0606 183.853 18.0085 183.26 17.1322C183.035 16.8361 182.744 16.5965 182.411 16.4323C182.077 16.2681 181.709 16.184 181.337 16.1864C180.973 16.179 180.612 16.2573 180.283 16.4151C179.955 16.5728 179.668 16.8055 179.446 17.0944C178.875 17.9416 178.61 18.9581 178.695 19.9761Z" fill="#263238"/>
</g>
<path d="M122.26 55.3696C128.716 55.3696 133.951 50.1356 133.951 43.679C133.951 37.2225 128.716 31.9884 122.26 31.9884C115.803 31.9884 110.569 37.2225 110.569 43.679C110.569 50.1356 115.803 55.3696 122.26 55.3696Z" fill="#263238"/>
<path d="M122.26 53.6293C127.755 53.6293 132.21 49.1744 132.21 43.679C132.21 38.1836 127.755 33.7288 122.26 33.7288C116.764 33.7288 112.31 38.1836 112.31 43.679C112.31 49.1744 116.764 53.6293 122.26 53.6293Z" fill="white"/>
<path d="M128.987 41.5351H124.321L128.237 29.9517L115.531 45.8229H120.197L116.282 57.4063L128.987 41.5351Z" fill="#4D65F1"/>
<path d="M129.387 52.1932L130.778 50.8021L115.133 35.1564L113.741 36.5475L129.387 52.1932Z" fill="#263238"/>
</svg>
