<svg width="80" height="80" viewBox="0 0 80 80" fill="none" xmlns="http://www.w3.org/2000/svg">
<circle cx="40" cy="40" r="40" fill="#E4E4E4" fill-opacity="0.6"/>
<mask id="path-2-inside-1" fill="white">
<path d="M54.0019 31.8727C53.403 31.2453 52.576 30.8746 51.635 30.8746H46.9011V30.8175C46.9011 30.1046 46.616 29.4202 46.1312 28.9639C45.6464 28.4791 44.9905 28.194 44.2776 28.194H35.7224C34.981 28.194 34.3251 28.4791 33.8403 28.9639C33.3555 29.4487 33.0703 30.1046 33.0703 30.8175V30.8746H28.365C27.424 30.8746 26.597 31.2453 25.9981 31.8727C25.3992 32.4715 25 33.327 25 34.2396V48.4411C25 49.3822 25.3707 50.2092 25.9981 50.808C26.597 51.4069 27.4525 51.8061 28.365 51.8061H51.635C52.576 51.8061 53.403 51.4354 54.0019 50.808C54.6008 50.2092 55 49.3537 55 48.4411V34.2396C55 33.2985 54.6293 32.4715 54.0019 31.8727ZM53.5171 48.4411H53.4886C53.4886 48.9544 53.289 49.4107 52.9468 49.7529C52.6046 50.0951 52.1483 50.2947 51.635 50.2947H28.365C27.8517 50.2947 27.3954 50.0951 27.0532 49.7529C26.711 49.4107 26.5114 48.9544 26.5114 48.4411V34.2396C26.5114 33.7263 26.711 33.27 27.0532 32.9278C27.3954 32.5856 27.8517 32.386 28.365 32.386H33.8688C34.2966 32.386 34.6388 32.0438 34.6388 31.616V30.789C34.6388 30.4753 34.7529 30.1902 34.9525 29.9905C35.1521 29.7909 35.4373 29.6769 35.7509 29.6769H44.2776C44.5913 29.6769 44.8764 29.7909 45.076 29.9905C45.2757 30.1902 45.3897 30.4753 45.3897 30.789V31.616C45.3897 32.0438 45.7319 32.386 46.1597 32.386H51.6635C52.1768 32.386 52.6331 32.5856 52.9753 32.9278C53.3175 33.27 53.5171 33.7263 53.5171 34.2396V48.4411Z"/>
</mask>
<path d="M54.0019 31.8727C53.403 31.2453 52.576 30.8746 51.635 30.8746H46.9011V30.8175C46.9011 30.1046 46.616 29.4202 46.1312 28.9639C45.6464 28.4791 44.9905 28.194 44.2776 28.194H35.7224C34.981 28.194 34.3251 28.4791 33.8403 28.9639C33.3555 29.4487 33.0703 30.1046 33.0703 30.8175V30.8746H28.365C27.424 30.8746 26.597 31.2453 25.9981 31.8727C25.3992 32.4715 25 33.327 25 34.2396V48.4411C25 49.3822 25.3707 50.2092 25.9981 50.808C26.597 51.4069 27.4525 51.8061 28.365 51.8061H51.635C52.576 51.8061 53.403 51.4354 54.0019 50.808C54.6008 50.2092 55 49.3537 55 48.4411V34.2396C55 33.2985 54.6293 32.4715 54.0019 31.8727ZM53.5171 48.4411H53.4886C53.4886 48.9544 53.289 49.4107 52.9468 49.7529C52.6046 50.0951 52.1483 50.2947 51.635 50.2947H28.365C27.8517 50.2947 27.3954 50.0951 27.0532 49.7529C26.711 49.4107 26.5114 48.9544 26.5114 48.4411V34.2396C26.5114 33.7263 26.711 33.27 27.0532 32.9278C27.3954 32.5856 27.8517 32.386 28.365 32.386H33.8688C34.2966 32.386 34.6388 32.0438 34.6388 31.616V30.789C34.6388 30.4753 34.7529 30.1902 34.9525 29.9905C35.1521 29.7909 35.4373 29.6769 35.7509 29.6769H44.2776C44.5913 29.6769 44.8764 29.7909 45.076 29.9905C45.2757 30.1902 45.3897 30.4753 45.3897 30.789V31.616C45.3897 32.0438 45.7319 32.386 46.1597 32.386H51.6635C52.1768 32.386 52.6331 32.5856 52.9753 32.9278C53.3175 33.27 53.5171 33.7263 53.5171 34.2396V48.4411Z" fill="white"/>
<path d="M54.0019 31.8727L52.7288 33.0879L52.7571 33.1175L52.7867 33.1458L54.0019 31.8727ZM46.9011 30.8746H45.1411V32.6346H46.9011V30.8746ZM46.1312 28.9639L44.8867 30.2084L44.9055 30.2273L44.9249 30.2456L46.1312 28.9639ZM33.0703 30.8746V32.6346H34.8303V30.8746H33.0703ZM25.9981 31.8727L27.2426 33.1172L27.2571 33.1027L27.2712 33.0879L25.9981 31.8727ZM25 48.4411H26.76H25ZM25.9981 50.808L27.2426 49.5635L27.2281 49.5491L27.2133 49.5349L25.9981 50.808ZM54.0019 50.808L52.7574 49.5635L52.7429 49.578L52.7288 49.5928L54.0019 50.808ZM55 34.2396H53.24H55ZM53.5171 48.4411V50.2011H55.2771V48.4411H53.5171ZM53.4886 48.4411V46.6811H51.7286V48.4411H53.4886ZM55.275 30.6574C54.345 29.6832 53.0585 29.1146 51.635 29.1146V32.6346C52.0936 32.6346 52.461 32.8074 52.7288 33.0879L55.275 30.6574ZM51.635 29.1146H46.9011V32.6346H51.635V29.1146ZM48.6611 30.8746V30.8175H45.1411V30.8746H48.6611ZM48.6611 30.8175C48.6611 29.6553 48.201 28.495 47.3374 27.6823L44.9249 30.2456C45.031 30.3454 45.1411 30.5539 45.1411 30.8175H48.6611ZM47.3757 27.7194C46.5704 26.9142 45.4707 26.434 44.2776 26.434V29.954C44.5103 29.954 44.7223 30.0441 44.8867 30.2084L47.3757 27.7194ZM44.2776 26.434H35.7224V29.954H44.2776V26.434ZM35.7224 26.434C34.5109 26.434 33.4083 26.9069 32.5958 27.7194L35.0848 30.2084C35.2419 30.0514 35.451 29.954 35.7224 29.954V26.434ZM32.5958 27.7194C31.7905 28.5247 31.3103 29.6244 31.3103 30.8175H34.8303C34.8303 30.5848 34.9205 30.3728 35.0848 30.2084L32.5958 27.7194ZM31.3103 30.8175V30.8746H34.8303V30.8175H31.3103ZM33.0703 29.1146H28.365V32.6346H33.0703V29.1146ZM28.365 29.1146C26.9415 29.1146 25.655 29.6832 24.725 30.6574L27.2712 33.0879C27.539 32.8074 27.9064 32.6346 28.365 32.6346V29.1146ZM24.7536 30.6282C23.8548 31.5269 23.24 32.8193 23.24 34.2396H26.76C26.76 33.8348 26.9437 33.4161 27.2426 33.1172L24.7536 30.6282ZM23.24 34.2396V48.4411H26.76V34.2396H23.24ZM23.24 48.4411C23.24 49.8646 23.8086 51.1512 24.7829 52.0811L27.2133 49.5349C26.9328 49.2672 26.76 48.8998 26.76 48.4411H23.24ZM24.7536 52.0525C25.6524 52.9513 26.9447 53.5661 28.365 53.5661V50.0461C27.9602 50.0461 27.5415 49.8625 27.2426 49.5635L24.7536 52.0525ZM28.365 53.5661H51.635V50.0461H28.365V53.5661ZM51.635 53.5661C53.0585 53.5661 54.345 52.9975 55.275 52.0233L52.7288 49.5928C52.461 49.8733 52.0936 50.0461 51.635 50.0461V53.5661ZM55.2464 52.0525C56.1452 51.1538 56.76 49.8614 56.76 48.4411H53.24C53.24 48.8459 53.0563 49.2646 52.7574 49.5635L55.2464 52.0525ZM56.76 48.4411V34.2396H53.24V48.4411H56.76ZM56.76 34.2396C56.76 32.8161 56.1914 31.5295 55.2171 30.5996L52.7867 33.1458C53.0672 33.4135 53.24 33.781 53.24 34.2396H56.76ZM53.5171 46.6811H53.4886V50.2011H53.5171V46.6811ZM51.7286 48.4411C51.7286 48.4668 51.7242 48.4776 51.7229 48.4805C51.7214 48.4843 51.7168 48.4938 51.7023 48.5084L54.1913 50.9974C54.8556 50.3331 55.2486 49.4323 55.2486 48.4411H51.7286ZM51.7023 48.5084C51.6877 48.523 51.6781 48.5275 51.6744 48.5291C51.6714 48.5303 51.6607 48.5347 51.635 48.5347V52.0547C52.6261 52.0547 53.5269 51.6618 54.1913 50.9974L51.7023 48.5084ZM51.635 48.5347H28.365V52.0547H51.635V48.5347ZM28.365 48.5347C28.3393 48.5347 28.3286 48.5303 28.3256 48.5291C28.3219 48.5275 28.3123 48.523 28.2977 48.5084L25.8087 50.9974C26.4731 51.6618 27.3739 52.0547 28.365 52.0547V48.5347ZM28.2977 48.5084C28.2832 48.4938 28.2786 48.4843 28.2771 48.4805C28.2758 48.4776 28.2714 48.4668 28.2714 48.4411H24.7514C24.7514 49.4323 25.1444 50.3331 25.8087 50.9974L28.2977 48.5084ZM28.2714 48.4411V34.2396H24.7514V48.4411H28.2714ZM28.2714 34.2396C28.2714 34.2139 28.2758 34.2031 28.2771 34.2002C28.2786 34.1964 28.2832 34.1869 28.2977 34.1723L25.8087 31.6833C25.1444 32.3477 24.7514 33.2484 24.7514 34.2396H28.2714ZM28.2977 34.1723C28.3123 34.1577 28.3219 34.1532 28.3256 34.1516C28.3286 34.1504 28.3393 34.146 28.365 34.146V30.626C27.3739 30.626 26.4731 31.0189 25.8087 31.6833L28.2977 34.1723ZM28.365 34.146H33.8688V30.626H28.365V34.146ZM33.8688 34.146C35.2686 34.146 36.3988 33.0158 36.3988 31.616H32.8788C32.8788 31.0718 33.3246 30.626 33.8688 30.626V34.146ZM36.3988 31.616V30.789H32.8788V31.616H36.3988ZM36.3988 30.789C36.3988 30.8988 36.3569 31.0752 36.197 31.2351L33.708 28.746C33.1488 29.3052 32.8788 30.0519 32.8788 30.789H36.3988ZM36.197 31.2351C36.0371 31.395 35.8607 31.4369 35.7509 31.4369V27.9169C35.0139 27.9169 34.2671 28.1869 33.708 28.746L36.197 31.2351ZM35.7509 31.4369H44.2776V27.9169H35.7509V31.4369ZM44.2776 31.4369C44.1678 31.4369 43.9914 31.395 43.8315 31.2351L46.3206 28.746C45.7614 28.1869 45.0147 27.9169 44.2776 27.9169V31.4369ZM43.8315 31.2351C43.6716 31.0752 43.6297 30.8987 43.6297 30.789H47.1497C47.1497 30.0519 46.8797 29.3052 46.3206 28.746L43.8315 31.2351ZM43.6297 30.789V31.616H47.1497V30.789H43.6297ZM43.6297 31.616C43.6297 33.0158 44.7599 34.146 46.1597 34.146V30.626C46.704 30.626 47.1497 31.0718 47.1497 31.616H43.6297ZM46.1597 34.146H51.6635V30.626H46.1597V34.146ZM51.6635 34.146C51.6892 34.146 51.7 34.1504 51.7029 34.1516C51.7067 34.1532 51.7162 34.1577 51.7308 34.1723L54.2198 31.6833C53.5554 31.0189 52.6546 30.626 51.6635 30.626V34.146ZM51.7308 34.1723C51.7453 34.1869 51.7499 34.1964 51.7515 34.2002C51.7527 34.2031 51.7571 34.2139 51.7571 34.2396H55.2771C55.2771 33.2484 54.8841 32.3477 54.2198 31.6833L51.7308 34.1723ZM51.7571 34.2396V48.4411H55.2771V34.2396H51.7571Z" fill="#4D65F1" mask="url(#path-2-inside-1)"/>
<mask id="path-4-inside-2" fill="white">
<path d="M40.0001 34.3253C38.0609 34.3253 36.2929 35.1237 35.0381 36.3785C33.7548 37.6618 32.9849 39.4013 32.9849 41.3405C32.9849 43.2796 33.7833 45.0477 35.0381 46.3024C36.3214 47.5857 38.0609 48.3557 40.0001 48.3557C41.9392 48.3557 43.7073 47.5572 44.9621 46.3024C46.2453 45.0192 47.0153 43.2796 47.0153 41.3405C47.0153 39.4013 46.2168 37.6332 44.9621 36.3785C43.7073 35.1237 41.9392 34.3253 40.0001 34.3253ZM43.8784 45.2473C42.8803 46.2169 41.5115 46.8443 40.0001 46.8443C38.4887 46.8443 37.1198 46.2169 36.1217 45.2473C35.1236 44.2492 34.5248 42.8804 34.5248 41.369C34.5248 39.8576 35.1522 38.4888 36.1217 37.4907C37.1198 36.4926 38.4887 35.8937 40.0001 35.8937C41.5115 35.8937 42.8803 36.5211 43.8784 37.4907C44.8765 38.4888 45.4754 39.8576 45.4754 41.369C45.5039 42.8804 44.8765 44.2492 43.8784 45.2473Z"/>
</mask>
<path d="M40.0001 34.3253C38.0609 34.3253 36.2929 35.1237 35.0381 36.3785C33.7548 37.6618 32.9849 39.4013 32.9849 41.3405C32.9849 43.2796 33.7833 45.0477 35.0381 46.3024C36.3214 47.5857 38.0609 48.3557 40.0001 48.3557C41.9392 48.3557 43.7073 47.5572 44.9621 46.3024C46.2453 45.0192 47.0153 43.2796 47.0153 41.3405C47.0153 39.4013 46.2168 37.6332 44.9621 36.3785C43.7073 35.1237 41.9392 34.3253 40.0001 34.3253ZM43.8784 45.2473C42.8803 46.2169 41.5115 46.8443 40.0001 46.8443C38.4887 46.8443 37.1198 46.2169 36.1217 45.2473C35.1236 44.2492 34.5248 42.8804 34.5248 41.369C34.5248 39.8576 35.1522 38.4888 36.1217 37.4907C37.1198 36.4926 38.4887 35.8937 40.0001 35.8937C41.5115 35.8937 42.8803 36.5211 43.8784 37.4907C44.8765 38.4888 45.4754 39.8576 45.4754 41.369C45.5039 42.8804 44.8765 44.2492 43.8784 45.2473Z" fill="white"/>
<path d="M43.8784 45.2473L45.1048 46.5097L45.1139 46.5008L45.1229 46.4918L43.8784 45.2473ZM36.1217 45.2473L34.8772 46.4918L34.8863 46.5008L34.8954 46.5097L36.1217 45.2473ZM36.1217 37.4907L34.8772 36.2461L34.8682 36.2552L34.8593 36.2643L36.1217 37.4907ZM43.8784 37.4907L45.1229 36.2461L45.1139 36.2371L45.1048 36.2282L43.8784 37.4907ZM45.4754 41.369H43.7154V41.3856L43.7157 41.4022L45.4754 41.369ZM40.0001 32.5653C37.5738 32.5653 35.3637 33.5638 33.7936 35.134L36.2826 37.623C37.222 36.6836 38.5481 36.0853 40.0001 36.0853V32.5653ZM33.7936 35.134C32.1911 36.7364 31.2249 38.9194 31.2249 41.3405H34.7449C34.7449 39.8832 35.3185 38.5871 36.2826 37.623L33.7936 35.134ZM31.2249 41.3405C31.2249 43.7668 32.2235 45.9768 33.7936 47.547L36.2826 45.0579C35.3432 44.1186 34.7449 42.7925 34.7449 41.3405H31.2249ZM33.7936 47.547C35.396 49.1494 37.579 50.1157 40.0001 50.1157V46.5957C38.5429 46.5957 37.2467 46.022 36.2826 45.0579L33.7936 47.547ZM40.0001 50.1157C42.4264 50.1157 44.6364 49.1171 46.2066 47.547L43.7176 45.0579C42.7782 45.9973 41.4521 46.5957 40.0001 46.5957V50.1157ZM46.2066 47.547C47.809 45.9445 48.7753 43.7616 48.7753 41.3405H45.2553C45.2553 42.7977 44.6816 44.0939 43.7176 45.0579L46.2066 47.547ZM48.7753 41.3405C48.7753 38.9142 47.7767 36.7041 46.2066 35.134L43.7176 37.623C44.6569 38.5624 45.2553 39.8884 45.2553 41.3405H48.7753ZM46.2066 35.134C44.6364 33.5638 42.4264 32.5653 40.0001 32.5653V36.0853C41.4521 36.0853 42.7782 36.6836 43.7176 37.623L46.2066 35.134ZM42.6521 43.9849C41.9538 44.6633 41.015 45.0843 40.0001 45.0843V48.6043C42.0079 48.6043 43.8069 47.7705 45.1048 46.5097L42.6521 43.9849ZM40.0001 45.0843C38.9851 45.0843 38.0464 44.6633 37.3481 43.9849L34.8954 46.5097C36.1933 47.7705 37.9922 48.6043 40.0001 48.6043V45.0843ZM37.3663 44.0028C36.6917 43.3282 36.2848 42.4044 36.2848 41.369H32.7648C32.7648 43.3564 33.5556 45.1702 34.8772 46.4918L37.3663 44.0028ZM36.2848 41.369C36.2848 40.354 36.7058 39.4153 37.3842 38.717L34.8593 36.2643C33.5985 37.5622 32.7648 39.3611 32.7648 41.369H36.2848ZM37.3663 38.7352C38.0408 38.0606 38.9646 37.6537 40.0001 37.6537V34.1337C38.0127 34.1337 36.1988 34.9245 34.8772 36.2461L37.3663 38.7352ZM40.0001 37.6537C41.015 37.6537 41.9538 38.0747 42.6521 38.7531L45.1048 36.2282C43.8069 34.9674 42.0079 34.1337 40.0001 34.1337V37.6537ZM42.6339 38.7352C43.3085 39.4098 43.7154 40.3336 43.7154 41.369H47.2354C47.2354 39.3816 46.4445 37.5678 45.1229 36.2461L42.6339 38.7352ZM43.7157 41.4022C43.7343 42.3912 43.3263 43.3104 42.6339 44.0028L45.1229 46.4918C46.4267 45.1881 47.2734 43.3696 47.2351 41.3358L43.7157 41.4022Z" fill="#4D65F1" mask="url(#path-4-inside-2)"/>
<path d="M50.6695 35.694C50.6695 35.9797 50.4379 36.2113 50.1522 36.2113C49.8664 36.2113 49.6348 35.9797 49.6348 35.694C49.6348 35.4082 49.8664 35.1766 50.1522 35.1766C50.4379 35.1766 50.6695 35.4083 50.6695 35.694Z" fill="white" stroke="#4D65F1" stroke-width="1.76"/>
</svg>
